<svg width="162" height="52" viewBox="0 0 162 52" fill="none" xmlns="http://www.w3.org/2000/svg">
<path fill-rule="evenodd" clip-rule="evenodd" d="M17.5 8.5C20.5848 8.5 23.4833 9.29819 26 10.6993V21C26 25.6944 22.1944 29.5 17.5 29.5C12.8056 29.5 9 25.6944 9 21V10.6993C11.5167 9.29819 14.4152 8.5 17.5 8.5ZM30 21V13.7525C33.093 16.9089 35 21.2317 35 26C35 35.665 27.165 43.5 17.5 43.5C7.83502 43.5 0 35.665 0 26C0 21.2317 1.90703 16.9089 5 13.7525V21C5 27.9036 10.5964 33.5 17.5 33.5C24.4036 33.5 30 27.9036 30 21ZM20.2102 16.6136C20.3958 16.8864 20.5436 17.1951 20.6534 17.5398H22.4545C22.3561 16.9716 22.1667 16.4545 21.8864 15.9886C21.6061 15.5189 21.2519 15.1136 20.8239 14.7727C20.3996 14.4318 19.9148 14.1686 19.3693 13.983C18.8277 13.7973 18.2424 13.7045 17.6136 13.7045C16.8598 13.7045 16.1648 13.8428 15.5284 14.1193C14.8958 14.392 14.3447 14.7879 13.875 15.3068C13.4091 15.822 13.0473 16.4489 12.7898 17.1875C12.5322 17.9261 12.4034 18.7595 12.4034 19.6875C12.4034 20.9148 12.625 21.9754 13.0682 22.8693C13.5114 23.7595 14.1288 24.447 14.9205 24.9318C15.7159 25.4167 16.6402 25.6591 17.6932 25.6591C18.6326 25.6591 19.4659 25.464 20.1932 25.0739C20.9242 24.6837 21.4962 24.1307 21.9091 23.4148C22.3258 22.6951 22.5341 21.8466 22.5341 20.8693V19.5455H17.9602V20.9943H20.8344C20.8233 21.5988 20.6929 22.1272 20.4432 22.5795C20.1856 23.0492 19.8201 23.4129 19.3466 23.6705C18.8769 23.928 18.3258 24.0568 17.6932 24.0568C17.0114 24.0568 16.4034 23.8883 15.8693 23.5511C15.3352 23.214 14.9148 22.7197 14.608 22.0682C14.3011 21.4167 14.1477 20.6193 14.1477 19.6761C14.1477 18.7367 14.2992 17.9432 14.6023 17.2955C14.9091 16.6439 15.3258 16.1496 15.8523 15.8125C16.3788 15.4754 16.9697 15.3068 17.625 15.3068C18.0114 15.3068 18.3655 15.358 18.6875 15.4602C19.0133 15.5625 19.303 15.7121 19.5568 15.9091C19.8106 16.1023 20.0284 16.3371 20.2102 16.6136Z" fill="#F5F6EE"/>
<path d="M73.0459 21.521H64.2065V18.4346C64.2065 16.4889 64.1226 15.2712 63.9546 14.7812C63.7866 14.2913 63.3877 14.0464 62.7578 14.0464C62.2119 14.0464 61.841 14.2563 61.645 14.6763C61.4491 15.0962 61.3511 16.174 61.3511 17.9097V34.2236C61.3511 35.7493 61.4491 36.7572 61.645 37.2471C61.841 37.723 62.2329 37.9609 62.8208 37.9609C63.4647 37.9609 63.8986 37.688 64.1226 37.1421C64.3605 36.5962 64.4795 35.5324 64.4795 33.9507V29.9194H62.6948V24.7544H73.0459V43H67.4819L66.6631 40.5645C66.0612 41.6143 65.2983 42.4051 64.3745 42.937C63.4647 43.4549 62.3869 43.7139 61.1411 43.7139C59.6574 43.7139 58.2646 43.3569 56.9629 42.6431C55.6751 41.9152 54.6953 41.0194 54.0234 39.9556C53.3516 38.8918 52.9316 37.779 52.7637 36.6172C52.5957 35.4414 52.5117 33.6847 52.5117 31.3472V21.248C52.5117 18.0007 52.6867 15.6421 53.0366 14.1724C53.3866 12.7026 54.3874 11.3589 56.0391 10.1411C57.7048 8.90934 59.8534 8.29346 62.4849 8.29346C65.0744 8.29346 67.223 8.82536 68.9307 9.88916C70.6383 10.953 71.7511 12.2197 72.269 13.6895C72.7869 15.1452 73.0459 17.2658 73.0459 20.0513V21.521ZM76.4893 9.00732H82.7461C86.9173 9.00732 89.7378 9.16829 91.2075 9.49023C92.6912 9.81217 93.895 10.638 94.8188 11.9678C95.7567 13.2835 96.2256 15.3901 96.2256 18.2876C96.2256 20.9331 95.8966 22.7108 95.2388 23.6206C94.5809 24.5304 93.2861 25.0763 91.3545 25.2583C93.1042 25.6922 94.2799 26.2731 94.8818 27.001C95.4837 27.7288 95.8547 28.4007 95.9946 29.0166C96.1486 29.6185 96.2256 31.2912 96.2256 34.0347V43H88.0161V31.7041C88.0161 29.8844 87.8691 28.7576 87.5752 28.3237C87.2952 27.8898 86.5464 27.6729 85.3286 27.6729V43H76.4893V9.00732ZM85.3286 14.8232V22.3818C86.3224 22.3818 87.0153 22.2489 87.4072 21.9829C87.8132 21.703 88.0161 20.8141 88.0161 19.3164V17.4478C88.0161 16.37 87.8201 15.6631 87.4282 15.3271C87.0503 14.9912 86.3504 14.8232 85.3286 14.8232ZM114.933 9.00732L119.993 43H110.944L110.503 36.8901H107.333L106.808 43H97.6533L102.146 9.00732H114.933ZM110.251 30.8643C109.803 27.015 109.355 22.2629 108.907 16.6079C108.011 23.1027 107.451 27.8548 107.228 30.8643H110.251ZM142.144 23.8306H133.305V17.9097C133.305 16.188 133.207 15.1172 133.011 14.6973C132.829 14.2633 132.416 14.0464 131.772 14.0464C131.044 14.0464 130.582 14.3053 130.386 14.8232C130.19 15.3411 130.092 16.4609 130.092 18.1826V33.9717C130.092 35.6234 130.19 36.7012 130.386 37.2051C130.582 37.709 131.023 37.9609 131.709 37.9609C132.367 37.9609 132.794 37.709 132.99 37.2051C133.2 36.7012 133.305 35.5184 133.305 33.6567V29.3945H142.144V30.7173C142.144 34.2306 141.892 36.7222 141.388 38.1919C140.898 39.6616 139.799 40.9494 138.092 42.0552C136.398 43.161 134.306 43.7139 131.814 43.7139C129.224 43.7139 127.09 43.245 125.41 42.3071C123.73 41.3693 122.618 40.0745 122.072 38.4229C121.526 36.7572 121.253 34.2586 121.253 30.9272V20.9961C121.253 18.5465 121.337 16.7129 121.505 15.4951C121.673 14.2633 122.17 13.0806 122.996 11.9468C123.835 10.813 124.99 9.92415 126.46 9.28027C127.944 8.6224 129.644 8.29346 131.562 8.29346C134.166 8.29346 136.314 8.79736 138.008 9.80518C139.701 10.813 140.814 12.0728 141.346 13.5845C141.878 15.0822 142.144 17.4198 142.144 20.5972V23.8306ZM145.314 9.00732H160.054V15.8101H154.154V22.2559H159.676V28.7227H154.154V36.1973H160.642V43H145.314V9.00732Z" fill="#F5F7EE"/>
</svg>
