<svg width="232" height="52" viewBox="0 0 232 52" fill="none" xmlns="http://www.w3.org/2000/svg">
<path fill-rule="evenodd" clip-rule="evenodd" d="M17.5 8.5C20.5848 8.5 23.4833 9.29819 26 10.6993V21C26 25.6944 22.1944 29.5 17.5 29.5C12.8056 29.5 9 25.6944 9 21V10.6993C11.5167 9.29819 14.4152 8.5 17.5 8.5ZM30 21V13.7525C33.093 16.9089 35 21.2317 35 26C35 35.665 27.165 43.5 17.5 43.5C7.83502 43.5 0 35.665 0 26C0 21.2317 1.90703 16.9089 5 13.7525V21C5 27.9036 10.5964 33.5 17.5 33.5C24.4036 33.5 30 27.9036 30 21ZM12.7784 13.8636V25.5H14.5341V20.4261H20.3352V25.5H22.0966V13.8636H20.3352V18.9205H14.5341V13.8636H12.7784Z" fill="#F5F6EE"/>
<path d="M73.0879 9.00732V43H64.2485V28.7227H61.603V43H52.7637V9.00732H61.603V21.1641H64.2485V9.00732H73.0879ZM85.4966 9.00732V43H76.6572V9.00732H85.4966ZM109.327 21.521H100.488V18.4346C100.488 16.4889 100.404 15.2712 100.236 14.7812C100.068 14.2913 99.6689 14.0464 99.0391 14.0464C98.4932 14.0464 98.1222 14.2563 97.9263 14.6763C97.7303 15.0962 97.6323 16.174 97.6323 17.9097V34.2236C97.6323 35.7493 97.7303 36.7572 97.9263 37.2471C98.1222 37.723 98.5142 37.9609 99.1021 37.9609C99.7459 37.9609 100.18 37.688 100.404 37.1421C100.642 36.5962 100.761 35.5324 100.761 33.9507V29.9194H98.9761V24.7544H109.327V43H103.763L102.944 40.5645C102.342 41.6143 101.58 42.4051 100.656 42.937C99.7459 43.4549 98.6681 43.7139 97.4224 43.7139C95.9386 43.7139 94.5459 43.3569 93.2441 42.6431C91.9564 41.9152 90.9766 41.0194 90.3047 39.9556C89.6328 38.8918 89.2129 37.779 89.0449 36.6172C88.877 35.4414 88.793 33.6847 88.793 31.3472V21.248C88.793 18.0007 88.9679 15.6421 89.3179 14.1724C89.6678 12.7026 90.6686 11.3589 92.3203 10.1411C93.986 8.90934 96.1346 8.29346 98.7661 8.29346C101.356 8.29346 103.504 8.82536 105.212 9.88916C106.92 10.953 108.032 12.2197 108.55 13.6895C109.068 15.1452 109.327 17.2658 109.327 20.0513V21.521ZM133.095 9.00732V43H124.255V28.7227H121.61V43H112.771V9.00732H121.61V21.1641H124.255V9.00732H133.095ZM145.503 9.00732V36.1973H150.878V43H136.664V9.00732H145.503ZM161.88 9.00732V43H153.041V9.00732H161.88ZM185.711 21.521H176.872V18.4346C176.872 16.4889 176.788 15.2712 176.62 14.7812C176.452 14.2913 176.053 14.0464 175.423 14.0464C174.877 14.0464 174.506 14.2563 174.31 14.6763C174.114 15.0962 174.016 16.174 174.016 17.9097V34.2236C174.016 35.7493 174.114 36.7572 174.31 37.2471C174.506 37.723 174.898 37.9609 175.486 37.9609C176.13 37.9609 176.564 37.688 176.788 37.1421C177.026 36.5962 177.145 35.5324 177.145 33.9507V29.9194H175.36V24.7544H185.711V43H180.147L179.328 40.5645C178.726 41.6143 177.963 42.4051 177.04 42.937C176.13 43.4549 175.052 43.7139 173.806 43.7139C172.322 43.7139 170.93 43.3569 169.628 42.6431C168.34 41.9152 167.36 41.0194 166.688 39.9556C166.017 38.8918 165.597 37.779 165.429 36.6172C165.261 35.4414 165.177 33.6847 165.177 31.3472V21.248C165.177 18.0007 165.352 15.6421 165.702 14.1724C166.052 12.7026 167.052 11.3589 168.704 10.1411C170.37 8.90934 172.518 8.29346 175.15 8.29346C177.739 8.29346 179.888 8.82536 181.596 9.88916C183.303 10.953 184.416 12.2197 184.934 13.6895C185.452 15.1452 185.711 17.2658 185.711 20.0513V21.521ZM209.479 9.00732V43H200.639V28.7227H197.994V43H189.154V9.00732H197.994V21.1641H200.639V9.00732H209.479ZM230.853 9.00732V15.8101H225.604V43H216.764V15.8101H211.536V9.00732H230.853Z" fill="#F5F7EE"/>
</svg>
