<svg width="41" height="40" viewBox="0 0 41 40" fill="none" xmlns="http://www.w3.org/2000/svg">
<path d="M27.5779 18.25C25.32 18.25 25.0075 20.5 25.0075 20.5H29.8044C29.8044 20.5 29.8357 18.25 27.5779 18.25ZM16.695 20.5H12.445V24.4062H16.4841C17.0935 24.3906 18.2341 24.2187 18.2341 22.5078C18.2341 20.4766 16.695 20.5 16.695 20.5Z" fill="white"/>
<path d="M20.695 2.5C11.031 2.5 3.19504 10.3359 3.19504 20C3.19504 29.6641 11.031 37.5 20.695 37.5C30.3591 37.5 38.195 29.6641 38.195 20C38.195 10.3359 30.3591 2.5 20.695 2.5ZM24.3825 13.25H30.406V15.0469H24.3825V13.25ZM21.3357 22.6875C21.3357 27.1406 16.695 27 16.695 27H9.10129V12.3906H16.695C19.0075 12.3906 20.8279 13.6641 20.8279 16.2812C20.8279 18.8984 18.6013 19.0625 18.6013 19.0625C21.5388 19.0625 21.3357 22.6875 21.3357 22.6875ZM32.6013 22.4453H25.031C25.031 25.1562 27.6013 24.9844 27.6013 24.9844C30.031 24.9844 29.945 23.4141 29.945 23.4141H32.5153C32.5153 27.5859 27.5153 27.2969 27.5153 27.2969C21.5232 27.2969 21.906 21.7109 21.906 21.7109C21.906 21.7109 21.8982 16.1016 27.5153 16.1016C33.4294 16.1094 32.6013 22.4453 32.6013 22.4453Z" fill="white"/>
<path d="M17.7263 16.5078C17.7263 14.9922 16.695 14.9922 16.695 14.9922H12.445V18.25H16.4294C17.1169 18.25 17.7263 18.0234 17.7263 16.5078Z" fill="white"/>
</svg>
