<svg width="40" height="40" viewBox="0 0 40 40" fill="none" xmlns="http://www.w3.org/2000/svg">
<path d="M14.5734 5.7594C14.4726 5.69704 14.3916 5.6073 14.3399 5.50065C14.2882 5.394 14.2678 5.27483 14.2813 5.15706C14.2947 5.03928 14.3413 4.92775 14.4158 4.83549C14.4902 4.74322 14.5893 4.67402 14.7016 4.63597C16.9813 3.85048 19.4072 3.58247 21.8034 3.85138C24.1996 4.12029 26.5058 4.91939 28.5547 6.19065C28.6289 6.23746 28.6925 6.29939 28.7412 6.3724C28.7899 6.4454 28.8227 6.52786 28.8375 6.61438C28.8522 6.70091 28.8486 6.78957 28.8268 6.87459C28.805 6.95961 28.7655 7.03909 28.7109 7.10784C26.9018 9.41967 24.6832 11.3793 22.1656 12.8891C20.132 10.0332 17.5513 7.60979 14.5734 5.7594ZM19.9344 14.0625C17.6523 10.9486 14.6501 8.43372 11.1844 6.73284C11.0851 6.68464 10.9748 6.664 10.8648 6.67307C10.7549 6.68214 10.6494 6.72059 10.5594 6.7844C7.75373 8.79128 5.65642 11.6358 4.56876 14.9094C4.54143 14.9931 4.5321 15.0816 4.54138 15.1692C4.55065 15.2568 4.57833 15.3414 4.62258 15.4175C4.66684 15.4936 4.72668 15.5595 4.79819 15.6109C4.86969 15.6623 4.95125 15.698 5.03751 15.7157C6.66838 16.0672 8.33168 16.2463 10 16.25C13.4311 16.2519 16.8214 15.5054 19.9344 14.0625ZM36.1531 18.2328C35.7558 14.6087 34.1491 11.224 31.5922 8.62503C31.5299 8.5617 31.4547 8.51239 31.3718 8.48039C31.2889 8.4484 31.2001 8.43445 31.1114 8.43948C31.0227 8.4445 30.9361 8.46839 30.8573 8.50955C30.7786 8.55071 30.7095 8.60819 30.6547 8.67815C28.6771 11.1975 26.2581 13.3364 23.5156 14.9907C24.3724 16.475 25.0815 18.0398 25.6328 19.6625C27.8714 19.0557 30.1806 18.7488 32.5 18.75C33.4919 18.7501 34.4831 18.8059 35.4688 18.9172C35.5605 18.9264 35.6531 18.9151 35.74 18.8843C35.8269 18.8534 35.9058 18.8037 35.9712 18.7388C36.0366 18.6738 36.0869 18.5952 36.1183 18.5085C36.1498 18.4219 36.1617 18.3293 36.1531 18.2375V18.2328ZM26.3234 22.061C26.7866 24.031 27.0199 26.0481 27.0188 28.0719C27.0178 30.009 26.8024 31.94 26.3766 33.8297C26.3493 33.9455 26.3557 34.0666 26.3949 34.1788C26.4341 34.2911 26.5045 34.3898 26.5978 34.4635C26.6911 34.5371 26.8035 34.5826 26.9218 34.5946C27.0401 34.6067 27.1594 34.5847 27.2656 34.5313C29.6355 33.3425 31.6793 31.5931 33.2197 29.4352C34.76 27.2773 35.7504 24.776 36.1047 22.1485C36.1154 22.0665 36.1098 21.9833 36.0881 21.9035C36.0664 21.8238 36.0291 21.7491 35.9784 21.6839C35.9277 21.6187 35.8646 21.5641 35.7926 21.5234C35.7207 21.4828 35.6414 21.4567 35.5594 21.4469C32.4695 21.0492 29.3316 21.2616 26.3234 22.0719V22.061ZM23.2547 20.4282C22.7509 18.9507 22.1024 17.5266 21.3188 16.1766C17.7869 17.8733 13.9183 18.7529 10 18.75C8.16844 18.7501 6.34187 18.559 4.55001 18.1797C4.46355 18.1615 4.37422 18.1618 4.28789 18.1806C4.20156 18.1994 4.1202 18.2363 4.04918 18.2889C3.97816 18.3414 3.91909 18.4085 3.87587 18.4855C3.83265 18.5626 3.80626 18.648 3.79844 18.736C3.76615 19.1526 3.74949 19.574 3.74844 20C3.74762 22.2251 4.20501 24.4265 5.09212 26.4671C5.97922 28.5078 7.27703 30.3438 8.90469 31.861C8.97335 31.9239 9.0552 31.9707 9.14427 31.9979C9.23333 32.0251 9.32735 32.0321 9.41946 32.0183C9.51156 32.0046 9.59943 31.9704 9.67662 31.9183C9.75382 31.8662 9.8184 31.7975 9.86563 31.7172C12.9153 26.5424 17.6382 22.562 23.2547 20.4328V20.4282ZM11.8266 33.3203C11.7855 33.392 11.7591 33.4712 11.7488 33.5532C11.7385 33.6352 11.7446 33.7184 11.7666 33.798C11.7887 33.8777 11.8264 33.9521 11.8774 34.0171C11.9285 34.0821 11.9919 34.1363 12.0641 34.1766C15.3318 36.0087 19.1326 36.654 22.8219 36.0032C22.9316 35.984 23.0341 35.9354 23.1184 35.8624C23.2026 35.7895 23.2654 35.695 23.3 35.5891C24.1059 33.1663 24.5174 30.6299 24.5188 28.0766C24.5191 26.3176 24.3231 24.564 23.9344 22.8485C18.8145 24.8433 14.5386 28.5415 11.8266 33.3203Z" fill="white"/>
</svg>
