<svg width="40" height="40" viewBox="0 0 40 40" fill="none" xmlns="http://www.w3.org/2000/svg">
<path d="M36.6667 9.66665C35.4139 10.2101 34.0891 10.5694 32.7333 10.7333C34.1636 9.87885 35.2355 8.53462 35.75 6.94998C34.4059 7.75009 32.9346 8.31381 31.4 8.61665C30.3743 7.50427 29.0083 6.76381 27.5164 6.5114C26.0244 6.25899 24.4909 6.50891 23.1563 7.22197C21.8217 7.93502 20.7616 9.07087 20.1421 10.4514C19.5226 11.8319 19.3788 13.379 19.7333 14.85C17.0157 14.7125 14.3574 14.0049 11.9311 12.7731C9.50479 11.5413 7.36475 9.8128 5.65001 7.69998C5.04857 8.75026 4.73254 9.93969 4.73334 11.15C4.73121 12.274 5.00704 13.381 5.53627 14.3726C6.0655 15.3642 6.83171 16.2095 7.76668 16.8333C6.67997 16.8037 5.61649 16.5121 4.66668 15.9833V16.0666C4.67482 17.6415 5.22667 19.1651 6.22887 20.3799C7.23107 21.5947 8.6221 22.4261 10.1667 22.7333C9.5721 22.9143 8.9548 23.0097 8.33334 23.0167C7.90316 23.0116 7.47405 22.9726 7.05001 22.9C7.48986 24.2547 8.34105 25.4386 9.48513 26.2869C10.6292 27.1353 12.0093 27.6059 13.4333 27.6333C11.0287 29.5254 8.05982 30.5581 5.00001 30.5666C4.4429 30.5685 3.88624 30.5351 3.33334 30.4667C6.45739 32.4837 10.098 33.5545 13.8167 33.55C16.3828 33.5766 18.9286 33.0917 21.3052 32.1234C23.6818 31.1552 25.8417 29.7231 27.6587 27.9108C29.4757 26.0985 30.9133 23.9423 31.8876 21.5682C32.8619 19.194 33.3534 16.6495 33.3333 14.0833V13.2C34.6412 12.2247 35.7691 11.029 36.6667 9.66665Z" fill="white"/>
</svg>
