<svg width="44" height="44" viewBox="0 0 44 44" fill="none" xmlns="http://www.w3.org/2000/svg">
<circle cx="22" cy="22" r="22" fill="#202020"/>
<path d="M22 12.2223C20.7034 12.2223 19.4599 12.7374 18.543 13.6542C17.6262 14.571 17.1111 15.8146 17.1111 17.1112C17.1111 18.4078 17.6262 19.6513 18.543 20.5681C19.4599 21.485 20.7034 22.0001 22 22.0001C23.2966 22.0001 24.5401 21.485 25.457 20.5681C26.3738 19.6513 26.8889 18.4078 26.8889 17.1112C26.8889 15.8146 26.3738 14.571 25.457 13.6542C24.5401 12.7374 23.2966 12.2223 22 12.2223ZM14.6667 17.1112C14.6667 15.1662 15.4393 13.301 16.8146 11.9257C18.1898 10.5504 20.0551 9.77783 22 9.77783C23.9449 9.77783 25.8102 10.5504 27.1854 11.9257C28.5607 13.301 29.3333 15.1662 29.3333 17.1112C29.3333 19.0561 28.5607 20.9213 27.1854 22.2966C25.8102 23.6719 23.9449 24.4445 22 24.4445C20.0551 24.4445 18.1898 23.6719 16.8146 22.2966C15.4393 20.9213 14.6667 19.0561 14.6667 17.1112ZM17.1111 29.3334C16.1387 29.3334 15.206 29.7197 14.5184 30.4073C13.8308 31.095 13.4444 32.0276 13.4444 33.0001C13.4444 33.3242 13.3157 33.6351 13.0865 33.8643C12.8573 34.0935 12.5464 34.2223 12.2222 34.2223C11.8981 34.2223 11.5872 34.0935 11.358 33.8643C11.1288 33.6351 11 33.3242 11 33.0001C11 31.3793 11.6438 29.8249 12.7899 28.6788C13.936 27.5328 15.4903 26.8889 17.1111 26.8889H26.8889C28.5097 26.8889 30.064 27.5328 31.2101 28.6788C32.3562 29.8249 33 31.3793 33 33.0001C33 33.3242 32.8712 33.6351 32.642 33.8643C32.4128 34.0935 32.1019 34.2223 31.7778 34.2223C31.4536 34.2223 31.1427 34.0935 30.9135 33.8643C30.6843 33.6351 30.5556 33.3242 30.5556 33.0001C30.5556 32.0276 30.1692 31.095 29.4816 30.4073C28.794 29.7197 27.8613 29.3334 26.8889 29.3334H17.1111Z" fill="white"/>
</svg>
