<svg width="42" height="42" viewBox="0 0 42 42" fill="none" xmlns="http://www.w3.org/2000/svg">
<path d="M39.2528 21.6611C39.2528 20.1712 39.1295 19.0839 38.8625 17.9564H21.5015V24.6813H31.692C31.4866 26.3525 30.3771 28.8694 27.9116 30.5606L27.8771 30.7857L33.3663 34.9531L33.7466 34.9903C37.2393 31.8291 39.2528 27.178 39.2528 21.6611Z" fill="#4285F4"/>
<path d="M21.5006 39.3799C26.493 39.3799 30.6843 37.769 33.7456 34.9905L27.9107 30.5607C26.3493 31.6279 24.2536 32.3729 21.5006 32.3729C16.6108 32.3729 12.4606 29.2118 10.9812 24.8425L10.7643 24.8606L5.05658 29.1896L4.98193 29.3929C8.02263 35.3125 14.2685 39.3799 21.5006 39.3799Z" fill="#34A853"/>
<path d="M10.9818 24.8426C10.5915 23.7151 10.3656 22.5069 10.3656 21.2586C10.3656 20.0102 10.5915 18.8022 10.9613 17.6746L10.951 17.4345L5.17167 13.036L4.98258 13.1242C3.72936 15.5806 3.01025 18.3391 3.01025 21.2586C3.01025 24.1782 3.72936 26.9365 4.98258 29.393L10.9818 24.8426Z" fill="#FBBC05"/>
<path d="M21.5006 10.1443C24.9728 10.1443 27.315 11.6141 28.6505 12.8424L33.869 7.84902C30.664 4.9295 26.4932 3.13751 21.5006 3.13751C14.2685 3.13751 8.02265 7.20468 4.98193 13.1242L10.9607 17.6747C12.4606 13.3055 16.6108 10.1443 21.5006 10.1443Z" fill="#EB4335"/>
</svg>
