<svg width="57" height="47" viewBox="0 0 57 47" fill="none" xmlns="http://www.w3.org/2000/svg">
<path d="M10.4688 16.6667C5.85419 20.0833 3 23.5 3 23.5C3 23.5 14.4167 37.1667 28.5 37.1667C30.2466 37.1667 31.9522 36.9564 33.6 36.5882M23.4405 10.4028C25.0759 10.0402 26.7678 9.83333 28.5 9.83333C42.5833 9.83333 54 23.5 54 23.5C54 23.5 51.1458 26.9167 46.5312 30.3333" stroke="#A7A3FF" stroke-width="5.33333" stroke-linecap="round" stroke-linejoin="round"/>
<path d="M23.8006 19.6518C22.7601 20.6652 22.125 22.0163 22.125 23.4998C22.125 26.6447 24.9792 29.1942 28.5 29.1942C30.2374 29.1942 31.8126 28.5733 32.9625 27.5664" stroke="#A7A3FF" stroke-width="5.33333" stroke-linecap="round" stroke-linejoin="round"/>
<path d="M51.4498 44L5.5498 3" stroke="#A7A3FF" stroke-width="5.33333" stroke-linecap="round" stroke-linejoin="round"/>
</svg>
