<svg width="75" height="76" viewBox="0 0 75 76" fill="none" xmlns="http://www.w3.org/2000/svg">
<path d="M53.2693 63.284V46.4941H62.9843C66.8386 46.4941 70.0777 45.7934 72.649 44.3313L72.6526 44.3292C73.074 44.0868 73.4782 43.83 73.8649 43.5588C70.9703 60.9166 55.8399 74.1532 37.6072 74.1532C27.8268 74.1532 18.94 70.3454 12.354 64.134H18.0201H18.8701V63.284V58.0958V57.2458H18.0201H12.0344L37.1835 19.7045L37.3273 19.4898V19.2314V14.9865V14.1365H36.4773H24.288H23.438V14.9865V20.1747V21.0247H24.288H27.9043L5.23103 54.8703C2.43623 49.7017 0.85 43.7874 0.85 37.5016C0.85 31.5741 2.26054 25.9773 4.76461 21.0247H18.0201H18.8701V20.1747V14.9865V14.1365H18.0201H9.28605C16.0291 6.01929 26.2123 0.85 37.6072 0.85C49.0832 0.85 59.3303 6.09318 66.0718 14.3103C65.0644 14.194 64.0035 14.1365 62.89 14.1365H46.5707H45.7207V14.9865V20.1689V21.0189H46.5707H53.2104V21.0247H54.0604H62.7014C65.2429 21.0247 67.1914 21.4525 68.6094 22.2387L68.615 22.2418C70.0557 23.0264 71.0687 24.0907 71.6935 25.4376L71.6966 25.4441C72.3585 26.8398 72.6994 28.442 72.6994 30.2681C72.6994 32.0941 72.3585 33.7055 71.6952 35.1187L71.6936 35.1222C71.0662 36.4746 70.0553 37.5575 68.6242 38.3732C67.224 39.1713 65.3024 39.6059 62.7957 39.6059H53.2693V39.5986H52.4193H46.5707H45.7207V40.4486V63.284V64.134H46.5707H52.4193H53.2693V63.284ZM36.7603 64.134H37.6103V63.284V58.0958V57.2458H36.7603H24.288H23.438V58.0958V63.284V64.134H24.288H36.7603Z" stroke="white" stroke-width="1.7"/>
</svg>
